<svg xmlns="http://www.w3.org/2000/svg" width="1024" height="1024" viewBox="0 0 1024 1024" version="1.1">
	<path d="M 0 512.001 L 0 1024.002 512.250 1023.751 L 1024.500 1023.500 1024.751 511.750 L 1025.002 0 512.501 0 L 0 0 0 512.001 M 0.496 512.500 C 0.496 794.100, 0.610 909.151, 0.750 768.168 C 0.890 627.186, 0.890 396.786, 0.750 256.168 C 0.610 115.551, 0.496 230.900, 0.496 512.500 M 517.750 187.677 L 514 188.121 514 203.560 C 514 218.904, 514.014 219, 516.250 219.006 C 517.487 219.009, 520.102 219.456, 522.060 220 C 525.242 220.884, 525.753 221.511, 526.884 225.924 C 527.579 228.638, 529.673 233.703, 531.536 237.179 C 533.398 240.656, 536.054 245.750, 537.437 248.500 C 538.820 251.250, 540.378 254.175, 540.899 255 C 541.421 255.825, 543.408 259.703, 545.316 263.618 C 547.224 267.533, 550.879 273.608, 553.438 277.118 C 556.765 281.682, 557.909 284.070, 557.454 285.500 C 557.103 286.600, 556.584 290.015, 556.300 293.090 C 555.683 299.761, 557.303 303.527, 563.250 309.241 C 568.171 313.968, 570.980 315.435, 577.932 316.907 C 585.211 318.448, 586 319.283, 586 325.448 C 586 329.722, 585.548 331.076, 583.469 333.029 C 579.949 336.336, 573.422 347.939, 572.591 352.366 C 572.003 355.502, 565.548 364.995, 561.621 368.500 C 559.369 370.510, 555.218 376.630, 552.596 381.807 C 549.709 387.507, 547.569 399.792, 549.165 401.500 C 549.767 402.145, 581.611 402.678, 638.800 403 C 687.585 403.275, 727.050 403.780, 726.500 404.122 C 725.950 404.465, 685.917 404.802, 637.537 404.872 C 589.158 404.943, 548.770 405.256, 547.787 405.568 C 546.804 405.880, 546 406.758, 546 407.519 C 546 408.281, 543.724 413.369, 540.943 418.825 C 538.161 424.282, 535.302 430.958, 534.589 433.661 C 533.211 438.887, 528.610 447, 527.025 447 C 525.892 447, 519 461.012, 519 463.316 C 519 464.199, 517.987 465.865, 516.750 467.017 C 514.665 468.958, 514.463 470.193, 514 483.806 C 513.725 491.888, 513.725 525.950, 514 559.500 L 514.500 620.500 548 620.257 C 581.969 620.012, 615 619.089, 615 618.385 C 615 618.173, 614.063 617.063, 612.918 615.918 C 610.801 613.801, 610.751 610.403, 612.694 600.500 C 613.216 597.842, 613.373 597.728, 614.071 599.500 C 614.523 600.647, 614.889 600.894, 614.930 600.079 C 615.035 597.953, 618.002 595.064, 619.493 595.636 C 621.389 596.363, 622.399 594.139, 622.143 589.798 C 622.020 587.709, 622.380 586, 622.943 586 C 623.506 586, 625.077 583.808, 626.434 581.129 C 627.792 578.451, 629.756 576.035, 630.800 575.763 C 632.679 575.271, 634 571.397, 634 566.375 C 634 563.939, 635.385 563.197, 636.516 565.027 C 638.373 568.031, 644.050 562.727, 643.286 558.701 C 642.923 556.784, 643.318 556.491, 646.357 556.428 C 649.560 556.362, 649.897 556.638, 650.491 559.801 C 650.846 561.696, 651.515 563.978, 651.977 564.873 C 652.438 565.768, 653.719 569.650, 654.822 573.500 C 658.497 586.324, 662.035 595.534, 669.080 610.610 C 670.136 612.870, 671 615.634, 671 616.753 C 671 617.871, 671.788 619.094, 672.750 619.469 C 674.755 620.253, 727.104 620.230, 727.888 619.445 C 728.502 618.831, 728.591 611.864, 729.458 496.180 C 729.981 426.487, 729.860 406.536, 728.906 405.387 C 728.048 404.353, 727.999 403.601, 728.741 402.859 C 729.781 401.819, 729.759 387.546, 728.562 290.643 C 728.319 270.922, 727.960 254.627, 727.766 254.433 C 726.673 253.340, 723.079 255.549, 722.555 257.635 C 721.857 260.419, 720 259.892, 720 256.910 C 720 255.825, 719.212 254.642, 718.250 254.281 C 715.581 253.279, 714.067 250.823, 714.032 247.439 C 713.996 244.015, 717.449 239.575, 719.527 240.372 C 720.254 240.651, 721.558 239.797, 722.425 238.475 C 724.207 235.755, 724.496 233, 723 233 C 722.450 233, 722 233.852, 722 234.893 C 722 237.330, 719.045 238.473, 717.287 236.716 C 716.144 235.573, 716.240 234.965, 717.891 232.865 C 719.409 230.936, 719.854 228.803, 719.861 223.436 C 719.870 215.834, 719.351 213, 717.949 213 C 717.444 213, 714.212 211.625, 710.766 209.944 C 703.540 206.420, 694.932 205.772, 682 207.779 C 664.596 210.480, 662.440 210.669, 659.719 209.736 C 658.190 209.212, 656.081 209.007, 655.034 209.281 C 653.986 209.555, 652.196 209.125, 651.054 208.325 C 649.913 207.526, 648.163 207.131, 647.166 207.447 C 646.169 207.764, 643.873 207.285, 642.065 206.383 C 639.300 205.003, 638.626 204.962, 637.823 206.121 C 637.138 207.112, 637.040 206.890, 637.475 205.334 C 637.809 204.143, 637.649 202.901, 637.121 202.575 C 635.890 201.814, 632.796 204.861, 633.555 206.088 C 633.870 206.598, 632.974 206.490, 631.564 205.847 C 628.302 204.361, 628.271 203, 631.500 203 C 632.875 203, 634 202.550, 634 202 C 634 201.450, 635.323 201, 636.941 201 C 638.559 201, 640.160 200.550, 640.500 200 C 641.096 199.035, 638.319 198.714, 629.759 198.759 C 627.702 198.770, 626.266 198.378, 626.568 197.889 C 626.871 197.400, 628.393 197, 629.952 197 C 634.919 197, 634.408 194.344, 629.180 192.989 C 625.291 191.980, 624.838 191.637, 626.500 190.958 C 627.600 190.508, 629.625 190.049, 631 189.937 C 632.375 189.825, 631.250 189.392, 628.500 188.975 C 622.961 188.136, 523.704 186.973, 517.750 187.677 M 617 199.500 C 617 200.433, 617.944 201, 619.500 201 C 621.056 201, 622 200.433, 622 199.500 C 622 198.567, 621.056 198, 619.500 198 C 617.944 198, 617 198.567, 617 199.500 M 666.250 231.863 C 662.199 235.332, 662.117 237, 666 237 C 667.650 237, 669 236.550, 669 236 C 669 235.450, 669.900 235, 671 235 C 673.255 235, 673.733 232.133, 671.800 230.200 C 670.194 228.594, 670.001 228.652, 666.250 231.863 M 615.500 286.970 C 612.750 287.425, 608.475 288.327, 606 288.973 C 603.525 289.620, 600.263 290.108, 598.750 290.059 C 597.237 290.009, 596 290.370, 596 290.862 C 596 292.840, 598.888 293.761, 606.687 294.269 C 613.473 294.711, 615.457 295.247, 618.281 297.401 C 622.087 300.304, 625.275 300.880, 624.362 298.500 C 624.045 297.675, 623.159 297, 622.393 297 C 621.627 297, 621 296.576, 621 296.057 C 621 294.288, 625.437 292, 628.865 292 C 631.636 292, 633.235 292.949, 637.286 297 C 642.265 301.980, 644 302.988, 644 300.904 C 644 298.637, 640.645 294.375, 636.025 290.773 C 630.663 286.593, 624.584 285.467, 615.500 286.970 M 912.419 306.464 C 910.814 308.370, 908.038 311.576, 906.250 313.590 C 904.462 315.604, 903 317.715, 903 318.281 C 903 318.848, 901.875 320.786, 900.500 322.589 C 899.125 324.392, 898 326.356, 898 326.955 C 898 329.062, 892.894 335.727, 890.415 336.857 C 885.425 339.130, 883.997 338.435, 884.032 333.750 C 884.049 331.413, 884.724 328.626, 885.532 327.559 C 887.258 325.276, 887.533 317, 885.882 317 C 884.707 317, 877 324.298, 877 325.411 C 877 326.013, 875.872 327.304, 867.233 336.589 C 865.436 338.521, 862.178 340.732, 859.992 341.503 C 857.807 342.274, 855.013 343.841, 853.785 344.986 C 850.437 348.105, 841.662 351.958, 834.163 353.601 C 819.782 356.753, 815.410 357.165, 804 356.440 C 785.507 355.267, 785.792 355.220, 768.500 362.231 C 759.700 365.798, 750.025 369.511, 747 370.481 C 743.975 371.452, 739.362 373.146, 736.750 374.246 L 732 376.246 731.928 384.873 C 731.888 389.618, 731.776 395.525, 731.678 398 L 731.500 402.500 810.500 402.334 C 853.950 402.243, 901.772 402.130, 916.772 402.084 L 944.043 402 943.979 387.250 C 943.903 369.794, 943.463 366.494, 941.179 366.248 C 935.391 365.624, 934.572 365.216, 933.670 362.509 C 932.922 360.267, 933.072 359.420, 934.386 358.460 C 935.901 357.352, 935.870 357.199, 934.023 356.716 C 932.470 356.310, 932 355.360, 932 352.628 C 932 347.506, 929.141 342, 926.481 342 C 923.055 342, 922.991 341.114, 926.087 336.526 C 928.819 332.479, 929.716 330, 928.450 330 C 926.377 330, 921.534 333.753, 917.836 338.224 C 912.338 344.872, 903.107 364.308, 898.975 377.932 C 897.236 383.670, 895.348 389.520, 894.780 390.932 L 893.748 393.500 892.894 390.500 C 891.540 385.749, 889.906 364.042, 890.604 360.088 C 893.551 343.392, 901.289 326.977, 911.152 316.500 C 914.774 312.653, 918.481 304.814, 917.257 303.590 C 916.166 302.500, 915.353 302.983, 912.419 306.464 M 884 344 C 884 344.550, 884.450 345, 885 345 C 885.550 345, 886 344.550, 886 344 C 886 343.450, 885.550 343, 885 343 C 884.450 343, 884 343.450, 884 344 M 296.596 345.611 C 295.391 348.752, 294.845 377.475, 295.962 379 C 298.263 382.142, 307.012 369.447, 310.388 358.068 C 313.600 347.244, 312.786 345.894, 302.335 344.703 C 298.285 344.241, 297.046 344.438, 296.596 345.611 M 283.638 350.382 C 277.505 353.785, 276.209 354.868, 270.182 361.634 C 268.157 363.907, 264.503 366.772, 262.063 368 C 259.622 369.227, 257.029 370.828, 256.300 371.557 C 255.571 372.286, 251.568 375.700, 247.405 379.144 C 240.825 384.587, 240.048 385.562, 241.465 386.598 C 244.126 388.544, 276.397 396.166, 278.561 395.360 C 279.628 394.963, 283.538 391.954, 287.250 388.674 L 294 382.709 293.986 367.104 C 293.979 358.522, 293.701 350.488, 293.370 349.250 C 292.570 346.266, 290.656 346.489, 283.638 350.382 M 297.929 406.046 C 297.082 406.567, 295.501 423.182, 295.697 429.500 C 295.748 431.150, 295.768 439.475, 295.740 448 C 295.712 456.525, 295.812 475.650, 295.962 490.500 C 296.111 505.350, 296.293 540.603, 296.367 568.839 L 296.500 620.178 403.455 620.050 C 462.281 619.980, 510.609 619.725, 510.851 619.483 C 511.907 618.426, 511.530 489.079, 510.444 480 C 509.819 474.775, 509.051 471.175, 508.737 472 C 507.943 474.089, 506.647 479.201, 506.456 481 C 506.368 481.825, 506.229 483.035, 506.148 483.689 C 506.067 484.343, 504.154 487.011, 501.898 489.618 C 498.340 493.729, 497.870 494.814, 498.355 497.802 C 499.016 501.876, 496.625 507.189, 492.353 511.136 C 490.784 512.585, 488.150 516.114, 486.500 518.977 C 484.850 521.840, 481.434 526.729, 478.909 529.841 C 476.385 532.954, 473.102 537.525, 471.614 540 C 470.127 542.475, 466.683 547.425, 463.961 551 C 461.239 554.575, 456.872 560.335, 454.256 563.800 C 451.640 567.265, 446.107 574.240, 441.960 579.300 C 437.813 584.360, 433.338 590.075, 432.015 592 C 430.692 593.925, 427.734 597.750, 425.441 600.500 C 423.148 603.250, 420.745 606.513, 420.101 607.750 C 418.745 610.354, 415.313 610.704, 412.441 608.532 C 411.374 607.724, 409.859 607.049, 409.075 607.032 C 408.291 607.014, 404.466 605.484, 400.575 603.630 C 396.684 601.777, 391.475 599.667, 389 598.943 C 384.746 597.697, 370.143 590.496, 362.842 586.045 C 361.004 584.924, 358.600 583.969, 357.500 583.922 C 356.400 583.876, 353.250 582.636, 350.500 581.169 C 344.753 578.101, 342.220 573.822, 340.931 565 C 340.488 561.975, 338.764 554.373, 337.098 548.107 C 335.432 541.841, 333.652 533.066, 333.141 528.607 C 332.631 524.148, 331.869 519.600, 331.447 518.500 C 331.026 517.400, 331.061 516.846, 331.526 517.269 C 332.729 518.363, 335.121 524.920, 335.715 528.750 C 336.395 533.133, 337.807 532.866, 338.190 528.281 C 338.438 525.310, 339.103 524.255, 341.500 523.031 C 343.150 522.189, 344.831 521.050, 345.235 520.500 C 345.639 519.950, 345.991 520.400, 346.016 521.500 C 346.058 523.248, 346.217 523.306, 347.282 521.963 C 347.952 521.118, 350.002 519.372, 351.837 518.083 C 354.843 515.972, 355.109 515.396, 354.523 512.272 C 354.065 509.831, 354.205 509.008, 354.993 509.496 C 358.104 511.419, 365.173 506.604, 366.364 501.750 C 366.912 499.516, 367.597 499, 370.019 499 C 371.659 499, 373 498.530, 373 497.955 C 373 497.380, 374.134 495.775, 375.519 494.390 C 376.905 493.004, 377.778 491.450, 377.460 490.935 C 377.142 490.421, 377.359 490, 377.941 490 C 378.523 490, 379 488.848, 379 487.441 C 379 485.990, 379.433 485.149, 380 485.500 C 380.550 485.840, 381 485.218, 381 484.118 C 381 483.018, 381.450 481.840, 382 481.500 C 382.550 481.160, 383.003 479.446, 383.006 477.691 C 383.010 475.936, 383.606 473.363, 384.331 471.973 C 386.205 468.383, 386.969 465, 385.906 465 C 385.408 465, 385 466.125, 385 467.500 C 385 468.875, 384.550 470, 384 470 C 383.450 470, 383 468.680, 383 467.067 C 383 464.979, 382.403 463.945, 380.928 463.477 C 379.617 463.061, 379.066 462.270, 379.428 461.326 C 379.744 460.504, 380.291 456.720, 380.644 452.916 C 380.998 449.112, 381.673 446, 382.144 446 C 384.426 446, 382.609 444.171, 379.750 443.589 C 377.041 443.039, 376.125 443.360, 374.250 445.520 C 373.012 446.945, 372 448.862, 372 449.778 C 372 451.016, 371.565 450.809, 370.310 448.973 C 369.381 447.613, 368.031 446.140, 367.310 445.700 C 364.844 444.195, 365.846 442, 369 442 C 371.105 442, 372 441.514, 372 440.372 C 372 439.031, 371.290 438.858, 367.975 439.388 C 364.871 439.884, 363.816 439.683, 363.365 438.508 C 362.451 436.126, 365.698 432, 368.488 432 C 369.906 432, 371.378 431.162, 372 430 C 372.959 428.208, 372.760 428, 370.094 428 C 368.457 428, 366.840 427.550, 366.500 427 C 366.160 426.450, 364.836 426, 363.558 426 C 362.074 426, 361.044 425.276, 360.710 424 C 360.423 422.900, 359.695 422, 359.094 422 C 358.492 422, 358 422.900, 358 424 C 358 425.100, 357.550 426, 357 426 C 356.450 426, 356 423.720, 356 420.933 C 356 416.986, 355.411 415.095, 353.336 412.374 C 348.287 405.754, 347.116 405.500, 321.658 405.500 C 309.096 405.500, 298.417 405.746, 297.929 406.046 M 731.738 405.688 C 731.003 406.995, 731.596 497.466, 732.496 521.349 C 733.206 540.196, 733.492 542.806, 734.578 540.349 C 735.271 538.782, 735.874 537.849, 735.919 538.276 C 736.062 539.645, 742 536.002, 742 534.546 C 742 533.774, 741.296 532.439, 740.436 531.579 C 738.293 529.436, 738.894 523.631, 741.305 523.174 C 742.564 522.936, 743.467 523.778, 744.289 525.956 C 744.976 527.775, 746.397 529.313, 747.693 529.638 C 748.917 529.945, 750.442 530.827, 751.081 531.598 C 751.721 532.369, 752.885 533, 753.668 533 C 754.783 533, 754.923 532.190, 754.314 529.250 C 753.887 527.188, 753.637 523.740, 753.758 521.589 C 753.879 519.438, 753.588 517.188, 753.111 516.589 C 751.585 514.671, 749.400 489.527, 750.410 485.502 C 750.812 483.900, 752.204 482.397, 753.977 481.652 C 757.699 480.087, 756.569 477.389, 752.607 478.384 C 751.075 478.768, 750 478.618, 750 478.019 C 750 477.459, 750.563 476.968, 751.250 476.929 C 755.316 476.697, 761.023 475.767, 764.500 474.770 C 766.700 474.139, 770.525 473.505, 773 473.361 C 775.475 473.218, 781.412 472.798, 786.194 472.428 C 799.040 471.434, 802.335 472.759, 798.250 477.279 C 797.177 478.466, 796.500 480.817, 796.500 483.356 C 796.500 485.935, 796.028 487.545, 795.250 487.624 C 794.563 487.693, 793.325 487.806, 792.500 487.875 C 790.228 488.064, 790.698 491, 793 491 C 794.100 491, 795 491.450, 795 492 C 795 492.813, 791.683 493.462, 790.750 492.831 C 790.612 492.738, 789.540 493.176, 788.368 493.803 C 786.922 494.577, 786.021 496.322, 785.569 499.222 C 785.202 501.575, 784.281 504.625, 783.523 506 C 782.313 508.195, 782.062 508.286, 781.465 506.750 C 781.092 505.788, 780.189 505, 779.460 505 C 777.699 505, 777.102 507.390, 777.256 513.822 C 777.338 517.229, 776.917 519.434, 776.085 519.947 C 775.258 520.459, 775.043 521.562, 775.495 522.985 C 776.405 525.850, 773.408 532.660, 770.956 533.301 C 769.805 533.602, 768.726 535.378, 768.018 538.138 C 767.402 540.537, 766.274 544.126, 765.512 546.113 C 764.501 548.749, 764.424 550.024, 765.230 550.830 C 766.036 551.636, 765.822 552.131, 764.440 552.662 C 763.397 553.062, 761.057 554.876, 759.239 556.694 C 755.622 560.311, 755.443 560.336, 741.304 559.159 C 734.434 558.587, 733.051 558.721, 732.753 559.988 C 732.122 562.663, 733.075 564.870, 734.810 564.757 C 735.740 564.697, 738.229 564.980, 740.343 565.386 C 743.794 566.050, 744.123 566.373, 743.574 568.563 C 743.050 570.650, 743.314 571, 745.416 571 C 746.765 571, 751.161 570.281, 755.185 569.401 C 764.487 567.369, 778.253 567.212, 783.440 569.081 C 786.894 570.325, 787.521 571.054, 788.535 575 C 789.172 577.475, 790.661 581.613, 791.846 584.195 C 793.031 586.777, 794 589.611, 794 590.491 C 794 591.371, 795.125 594.205, 796.500 596.788 C 797.875 599.371, 799 602.216, 799 603.111 C 799 604.869, 803.326 618.659, 804.129 619.463 C 804.630 619.963, 849.063 620.109, 881.892 619.719 L 900.284 619.500 900.533 610.500 C 900.671 605.550, 901.104 593.175, 901.496 583 C 902.160 565.778, 901.607 550.726, 899.032 516 C 897.787 499.213, 900.069 492.897, 905.526 498.024 C 909.717 501.961, 913.248 514.941, 913.593 527.674 C 913.715 532.170, 914.486 538.245, 915.308 541.174 C 916.129 544.104, 917.085 548.750, 917.431 551.500 C 918.407 559.242, 920.134 566.348, 921.442 568 C 922.095 568.825, 924.351 572.961, 926.454 577.191 C 929.662 583.640, 930.188 585.560, 929.715 589.087 C 929.284 592.302, 929.958 595.664, 932.576 603.363 C 934.459 608.901, 936 614.936, 936 616.774 C 936 620.086, 936.037 620.112, 940.250 619.807 L 944.500 619.500 944.505 578.500 C 944.508 555.950, 944.241 536.375, 943.913 535 C 943.528 533.388, 942.727 532.604, 941.658 532.794 C 940.687 532.966, 940 532.430, 940 531.500 C 940 530.545, 940.694 530.029, 941.740 530.206 C 943.169 530.447, 943.615 529.425, 944.231 524.500 C 944.989 518.440, 944.245 486.205, 943.312 484.696 C 943.035 484.247, 942.191 484.695, 941.436 485.690 C 940.167 487.363, 940.061 487.290, 940.032 484.719 C 940.014 483.189, 940.631 481.695, 941.402 481.399 C 943.890 480.444, 944.302 474.111, 944.121 439.500 L 943.945 405.500 838.069 405.188 C 779.838 405.017, 731.989 405.242, 731.738 405.688 M 234 420.063 C 230.975 420.492, 223.067 421.312, 216.427 421.885 C 203.901 422.966, 201 423.577, 201 425.132 C 201 427.004, 205.925 427.765, 222.500 428.451 C 231.850 428.838, 244.191 429.795, 249.924 430.577 C 264.156 432.520, 268.206 432.413, 271.256 430.014 C 273.544 428.214, 274.472 428.117, 281.140 428.983 C 292.728 430.487, 294.002 430.365, 293.985 427.750 C 293.976 426.512, 293.639 424.985, 293.235 424.356 C 292.321 422.932, 256.822 418.947, 246.782 419.141 C 242.777 419.218, 237.025 419.633, 234 420.063 M 363 423.500 C 363 424.325, 363.436 425, 363.969 425 C 364.501 425, 364.678 424.325, 364.362 423.500 C 364.045 422.675, 363.609 422, 363.393 422 C 363.177 422, 363 422.675, 363 423.500 M 379 426 C 379 426.550, 379.450 427, 380 427 C 380.550 427, 381 426.550, 381 426 C 381 425.450, 380.550 425, 380 425 C 379.450 425, 379 425.450, 379 426 M 383 426 C 383 426.550, 383.450 427, 384 427 C 384.550 427, 385 426.550, 385 426 C 385 425.450, 384.550 425, 384 425 C 383.450 425, 383 425.450, 383 426 M 376 429.531 C 376 430.339, 376.675 431, 377.500 431 C 378.325 431, 379 430.598, 379 430.107 C 379 429.616, 378.325 428.955, 377.500 428.638 C 376.586 428.288, 376 428.637, 376 429.531 M 353.742 430.125 C 351.584 431.332, 351.330 435.194, 353.462 434.376 C 354.842 433.847, 356.588 430.255, 355.833 429.500 C 355.641 429.307, 354.700 429.589, 353.742 430.125 M 913.463 444.750 C 913.146 446.262, 912.397 449.437, 911.798 451.805 C 911.013 454.910, 911.013 456.413, 911.799 457.199 C 913.051 458.451, 913.542 456.746, 914.519 447.750 C 915.163 441.820, 914.481 439.883, 913.463 444.750 M 515.672 449.891 C 515.302 451.738, 515.049 454.206, 515.110 455.375 C 515.170 456.544, 515.618 455.475, 516.105 453 C 516.592 450.525, 516.845 448.057, 516.667 447.516 C 516.489 446.974, 516.041 448.043, 515.672 449.891 M 515.079 460.583 C 515.127 461.748, 515.364 461.985, 515.683 461.188 C 515.972 460.466, 515.936 459.603, 515.604 459.271 C 515.272 458.939, 515.036 459.529, 515.079 460.583 M 218.500 462.079 C 199.719 463.771, 194.577 466.264, 198.626 471.714 C 201.771 475.947, 214.315 479.639, 232 481.538 C 239.975 482.394, 247.175 483.282, 248 483.509 C 250.041 484.073, 264.471 485.900, 275.806 487.031 C 280.924 487.541, 286.678 488.702, 288.592 489.610 C 290.506 490.519, 292.393 490.940, 292.786 490.547 C 293.530 489.803, 293.247 463.208, 292.482 461.970 C 292.242 461.582, 289.673 461.707, 286.773 462.247 C 282.101 463.117, 255.130 462.761, 235 461.565 C 231.425 461.352, 224 461.584, 218.500 462.079 M 246.186 469.968 C 243.334 473.382, 241 476.577, 241 477.068 C 241 478.310, 243.424 478.667, 260 479.861 C 275.301 480.963, 286.404 480.465, 287.854 478.612 C 288.332 478, 288.998 475.393, 289.333 472.818 C 289.932 468.222, 289.884 468.118, 286.722 467.159 C 282.461 465.867, 276.230 465.151, 262.614 464.390 L 251.372 463.761 246.186 469.968 M 385.639 478.498 C 384.746 480.825, 384.807 481, 386.500 481 C 388.183 481, 388.373 480.137, 387.124 478.166 C 386.449 477.102, 386.149 477.169, 385.639 478.498 M 497.625 481.798 C 496.834 483.077, 498.668 485.323, 499.888 484.569 C 501.494 483.577, 501.256 481, 499.559 481 C 498.766 481, 497.896 481.359, 497.625 481.798 M 749.667 481.667 C 749.300 482.033, 749 482.798, 749 483.367 C 749 483.993, 749.466 483.934, 750.183 483.217 C 750.834 482.566, 751.134 481.801, 750.850 481.517 C 750.566 481.233, 750.033 481.300, 749.667 481.667 M 867.029 498.961 C 866.220 499.473, 865.861 500.195, 866.232 500.566 C 867.172 501.505, 872 500.179, 872 498.981 C 872 497.744, 868.972 497.732, 867.029 498.961 M 187.299 510.033 C 185.539 510.582, 183.821 511.481, 183.482 512.030 C 182.617 513.429, 197.823 520.454, 208 523.356 C 221.866 527.311, 234.214 528.839, 257.500 529.484 C 280.627 530.124, 285.398 530.721, 289.648 533.505 C 292.827 535.588, 293.961 534.374, 293.985 528.867 C 294.003 524.521, 292.859 524.037, 282.500 524.008 C 278.650 523.998, 273.925 523.545, 272 523.003 C 268.360 521.978, 262.032 516.798, 260.170 513.318 C 259.172 511.453, 257.743 511.262, 240.297 510.660 C 196.268 509.140, 190.386 509.070, 187.299 510.033 M 346 514.882 C 346 515.432, 346.450 516.160, 347 516.500 C 347.550 516.840, 348 516.668, 348 516.118 C 348 515.568, 347.550 514.840, 347 514.500 C 346.450 514.160, 346 514.332, 346 514.882 M 301.079 532.583 C 301.127 533.748, 301.364 533.985, 301.683 533.188 C 301.972 532.466, 301.936 531.603, 301.604 531.271 C 301.272 530.939, 301.036 531.529, 301.079 532.583 M 300.750 539.084 C 298.534 542.982, 298.536 544.718, 300.759 545.423 C 301.726 545.731, 302.964 546.996, 303.509 548.235 C 304.646 550.821, 308 551.906, 308 549.688 C 308 548.885, 307.328 546.940, 306.506 545.364 C 305.685 543.789, 305.010 541.799, 305.006 540.941 C 305.003 540.084, 304.438 538.622, 303.750 537.694 C 302.621 536.169, 302.331 536.303, 300.750 539.084 M 288 546.093 C 286.075 546.524, 277.525 547.640, 269 548.572 C 252.184 550.412, 223.422 550.103, 207.610 547.913 C 194.024 546.031, 189.069 548.728, 194.424 555.092 C 195.841 556.776, 197.005 558.681, 197.011 559.327 C 197.017 559.972, 198.934 562.525, 201.272 565 C 205.239 569.200, 209.831 572.878, 225.929 584.756 C 229.465 587.365, 233.965 590.722, 235.929 592.216 C 237.893 593.709, 241.750 596.131, 244.500 597.597 C 247.250 599.063, 249.725 600.584, 250 600.977 C 250.275 601.370, 251.681 602.323, 253.124 603.096 C 254.567 603.868, 257.492 605.454, 259.624 606.621 C 277.397 616.344, 283.486 619, 288.006 619 L 292.692 619 293.386 596.218 C 294.063 573.977, 293.393 547.095, 292.131 545.905 C 291.784 545.577, 289.925 545.662, 288 546.093 M 763.758 583.828 C 761.150 584.747, 758.900 585.831, 758.758 586.236 C 758.616 586.642, 761.869 588.588, 765.987 590.561 C 770.105 592.534, 773.705 594.463, 773.987 594.848 C 775.004 596.232, 779.559 598.698, 782.390 599.396 C 785.252 600.101, 785.274 600.073, 784.679 596.411 C 783.983 592.118, 781.455 589.142, 774.970 584.981 C 769.658 581.572, 770.041 581.611, 763.758 583.828 M 815.552 591.916 C 814.769 593.183, 816.712 598, 818.007 598 C 819.692 598, 820.252 595.339, 819.042 593.078 C 817.860 590.869, 816.482 590.411, 815.552 591.916 M 712 602.059 C 712 602.641, 712.450 602.840, 713 602.500 C 713.550 602.160, 714 601.684, 714 601.441 C 714 601.198, 713.550 601, 713 601 C 712.450 601, 712 601.477, 712 602.059 M 751.656 605.116 C 747.377 607.374, 747.227 608.625, 751.426 607.028 C 752.913 606.463, 755.451 606, 757.065 606 C 760.217 606, 761.008 604.601, 758.418 603.607 C 756.238 602.770, 756.004 602.822, 751.656 605.116 M 874 604.441 C 874 605.234, 874.450 606.160, 875 606.500 C 875.550 606.840, 876 606.191, 876 605.059 C 876 603.927, 875.550 603, 875 603 C 874.450 603, 874 603.648, 874 604.441 M 758.159 610.331 C 756.037 612.590, 756.026 612.714, 757.813 614.331 C 760.477 616.742, 764 616.516, 764 613.934 C 764 611.541, 762.293 608, 761.139 608 C 760.704 608, 759.363 609.049, 758.159 610.331 M 605.263 610.228 C 604.703 610.928, 603.951 612.459, 603.593 613.632 C 602.709 616.520, 605.306 617.424, 607.506 614.994 C 609.008 613.334, 609.034 612.887, 607.740 611.039 C 606.599 609.410, 606.059 609.234, 605.263 610.228 M 694.729 610.092 C 692.600 611.332, 693.363 613, 696.059 613 C 697.333 613, 698 612.313, 698 611 C 698 608.767, 697.326 608.580, 694.729 610.092 M 616.543 610.931 C 615.860 612.036, 617.437 613.230, 618.361 612.306 C 619.311 611.355, 619.134 610, 618.059 610 C 617.541 610, 616.859 610.419, 616.543 610.931 M 77.812 728.246 C 77.640 786.685, 77.626 834.971, 77.779 835.548 C 78.084 836.691, 292.330 837.003, 293.471 835.862 C 293.813 835.520, 293.988 818.199, 293.860 797.370 C 293.732 776.542, 293.598 728.675, 293.563 691 L 293.500 622.500 185.812 622.246 L 78.123 621.991 77.812 728.246 M 296.611 622.722 C 295.769 623.564, 295.835 661.502, 296.681 662.347 C 297.055 662.722, 298.518 661.923, 299.931 660.573 C 306.288 654.499, 317.240 655.042, 322.250 661.679 C 324.564 664.745, 325 666.307, 325 671.539 C 325 678.462, 323.253 681.279, 320.166 679.334 C 318.930 678.555, 318.467 676.683, 318.370 672.084 C 318.266 667.107, 317.788 665.404, 315.946 663.443 C 312.922 660.224, 310.593 660.358, 308.073 663.898 C 305.523 667.479, 306.108 672.680, 309.048 672.570 C 311.594 672.475, 311.587 674.421, 309.040 674.820 C 307.706 675.028, 307 675.896, 307 677.325 C 307 678.974, 306.082 679.798, 303.259 680.681 C 298.868 682.056, 298.500 681.830, 298.500 677.750 C 298.500 676.054, 297.926 674.475, 297.223 674.241 C 295.457 673.652, 296.803 682.207, 298.649 683.300 C 299.392 683.740, 300 684.893, 300 685.863 C 300 687.834, 304.123 691.911, 308.131 693.903 C 311.130 695.393, 315 694.565, 315 692.433 C 315 690.976, 314.075 690.665, 310.500 690.923 C 308.098 691.096, 305.352 687.248, 306.826 685.774 C 307.479 685.121, 309.003 685.176, 311.307 685.936 C 313.228 686.570, 315.969 686.795, 317.399 686.436 C 319.593 685.885, 320 686.118, 320 687.923 C 320 689.100, 320.675 690.322, 321.500 690.638 C 322.325 690.955, 323 691.657, 323 692.199 C 323 692.741, 323.907 694.337, 325.015 695.746 C 326.847 698.075, 326.894 698.513, 325.532 700.591 C 324.160 702.686, 324.196 702.927, 325.966 703.489 C 329.746 704.689, 330.488 713.788, 327.100 717.394 C 325.945 718.623, 325 719.937, 325 720.314 C 325 721.730, 327.941 720.931, 328.920 719.250 C 330.207 717.041, 330.274 718.559, 329.074 722.743 C 328.505 724.725, 328.505 726.194, 329.074 726.546 C 330.723 727.565, 330.055 730.752, 328.084 731.268 C 325.448 731.957, 324 730.209, 324 726.334 C 324 721.409, 319.664 717.478, 313.299 716.634 C 306.140 715.684, 302.680 717.390, 299.220 723.571 C 298.394 725.047, 298.617 725.624, 300.345 726.488 C 301.920 727.276, 302.500 728.484, 302.500 730.979 C 302.500 733.793, 302.938 734.496, 305 734.988 C 307.416 735.565, 307.522 735.939, 308.158 746.159 C 308.689 754.688, 309.487 758.548, 312.283 766.116 C 316.635 777.897, 318.753 785.292, 319.356 790.814 C 319.764 794.550, 319.537 795.236, 317.663 795.933 C 314.988 796.927, 313 796.251, 313 794.347 C 313 792.842, 303.737 788.027, 300.809 788.010 C 299.879 788.004, 298.810 787.502, 298.434 786.893 C 296.667 784.034, 296.100 790.130, 296.078 812.227 L 296.055 836 311.527 836 C 320.975 836, 327 835.618, 327 835.019 C 327 834.480, 325.762 833.777, 324.250 833.458 C 322.738 833.138, 318.575 831.796, 315 830.475 C 311.425 829.154, 307.601 827.938, 306.502 827.773 C 304.854 827.526, 304.466 826.620, 304.295 822.617 C 304.115 818.425, 304.491 817.356, 307.043 814.803 C 308.669 813.177, 310 810.811, 310 809.546 C 310 808.280, 310.675 806.685, 311.500 806 C 312.325 805.315, 313 803.740, 313 802.500 C 313 799.794, 315.400 797.556, 317.455 798.344 C 318.270 798.657, 319.202 798.482, 319.527 797.956 C 319.852 797.430, 321.641 797, 323.502 797 C 325.777 797, 327.356 796.330, 328.318 794.957 C 329.731 792.939, 329.785 792.952, 332.621 795.957 C 334.201 797.631, 336.065 799, 336.764 799 C 337.462 799, 340.028 801.082, 342.466 803.626 C 345.485 806.776, 347.418 808.054, 348.524 807.629 C 350.672 806.805, 353.882 809.837, 352.055 810.966 C 351.225 811.479, 351.145 811.971, 351.824 812.391 C 352.395 812.744, 353.144 812.575, 353.490 812.016 C 354.170 810.916, 362.841 810.618, 365.418 811.607 C 366.437 811.998, 367 813.440, 367 815.658 C 367 818.643, 366.538 819.295, 363.532 820.551 C 361.625 821.348, 359.202 822, 358.148 822 C 355.190 822, 349 829.439, 349 832.993 L 349 835.981 430.250 835.741 L 511.500 835.500 511.317 804.617 C 511.217 787.632, 510.767 773.385, 510.317 772.957 C 509.868 772.530, 505.776 771.959, 501.225 771.690 C 493.072 771.208, 492.869 771.131, 487.405 766.463 L 481.860 761.725 477.738 762.960 C 474.071 764.059, 473.471 763.998, 472.308 762.407 C 471.589 761.423, 471 760.262, 471 759.828 C 471 759.394, 469.762 758.742, 468.250 758.381 C 461.591 756.790, 461.037 752.821, 467.188 750.771 C 469.491 750.003, 471.555 748.835, 471.775 748.176 C 472.381 746.356, 465.941 743.961, 463.686 745.168 C 461.023 746.593, 458.804 745.405, 459.180 742.754 C 459.439 740.932, 460.234 740.440, 463.331 740.185 C 466.236 739.946, 469.218 740.888, 475.670 744.084 L 484.178 748.299 497.544 748.487 C 506.448 748.612, 511.027 748.312, 511.258 747.588 C 511.449 746.989, 511.581 718.600, 511.552 684.500 L 511.500 622.500 404.361 622.305 C 345.435 622.198, 296.948 622.386, 296.611 622.722 M 614.785 623.048 C 607.242 623.350, 600.755 623.912, 600.369 624.298 C 599.983 624.684, 600.362 625, 601.211 625 C 602.060 625, 603.300 625.656, 603.966 626.459 C 604.963 627.661, 604.721 628.032, 602.588 628.567 C 599.297 629.393, 599.277 630.602, 602.541 631.421 C 606.209 632.342, 604.555 634, 599.967 634 C 596.658 634, 595.353 634.700, 591.526 638.526 C 589.037 641.016, 587 643.941, 587 645.026 C 587 648.598, 584.346 647.085, 583.007 642.750 C 581.806 638.864, 578.839 635, 577.056 635 C 576.658 635, 576.371 638.070, 576.417 641.823 C 576.478 646.835, 575.975 649.623, 574.523 652.323 C 572.521 656.045, 569.144 657.649, 570.467 654.250 C 571.389 651.879, 572.002 644, 571.264 644 C 570.939 644, 568.946 644.762, 566.836 645.692 C 562.890 647.434, 561.855 649.624, 564.500 650.638 C 565.325 650.955, 566.014 651.953, 566.032 652.857 C 566.049 653.761, 566.724 655.374, 567.532 656.441 C 568.339 657.509, 569 658.933, 569 659.606 C 569 661.313, 560.188 666.114, 559.399 664.836 C 559.055 664.280, 559.275 663.325, 559.887 662.713 C 561.881 660.719, 561.196 658, 558.700 658 C 557.435 658, 555.828 657.438, 555.129 656.750 C 554.109 655.747, 553.477 655.967, 551.929 657.861 C 550.868 659.159, 550 661.045, 550 662.052 C 550 663.058, 549.550 664.160, 549 664.500 C 547.047 665.707, 547.921 655.658, 550 653 C 552.797 649.424, 552.545 647.804, 549.250 648.184 C 546.609 648.487, 546.514 648.695, 546.854 653.417 C 547.155 657.598, 546.867 658.591, 544.929 660.054 C 542.970 661.531, 542.681 662.566, 542.876 667.387 C 543.051 671.722, 542.773 673, 541.656 673 C 540.744 673, 540.020 671.617, 539.694 669.250 C 539.410 667.188, 538.782 663.925, 538.298 662 C 537.441 658.589, 537.293 658.500, 532.459 658.500 C 528.034 658.500, 527.543 658.715, 527.898 660.500 C 528.117 661.600, 528.368 664.843, 528.456 667.707 C 528.544 670.571, 529.212 674.028, 529.941 675.389 C 531.446 678.202, 530.564 682.530, 529.001 680.001 C 527.854 678.146, 527.558 678.496, 525.193 684.503 C 523.615 688.513, 522.759 689.506, 520.863 689.530 C 518.291 689.562, 518.298 689.503, 519.590 700.750 C 520.219 706.226, 519.613 707.208, 517.428 704.250 C 514.117 699.769, 513.859 703.759, 513.850 759.621 C 513.846 789.804, 513.877 819.311, 513.921 825.191 L 514 835.881 537.750 835.915 C 550.813 835.933, 565.161 836.243, 569.635 836.602 C 574.110 836.962, 581.213 836.934, 585.420 836.540 C 592.044 835.919, 593.288 835.491, 594.692 833.347 C 596.813 830.111, 597.169 818.359, 595.134 818.789 C 594.382 818.948, 592.711 818.385, 591.419 817.539 C 590.127 816.692, 587.060 816, 584.603 816 C 580.972 816, 580.012 815.615, 579.482 813.943 C 578.412 810.572, 575.473 811.984, 575.647 815.786 C 575.762 818.293, 575.390 819, 573.956 819 C 572.945 819, 571.866 819.408, 571.558 819.906 C 570.900 820.971, 567 820.147, 567 818.942 C 567 818.489, 567.450 817.840, 568 817.500 C 569.594 816.515, 569.157 812.998, 567.355 812.306 C 566.363 811.925, 565.200 812.374, 564.422 813.438 C 563.713 814.407, 562.624 814.886, 562.001 814.501 C 561.210 814.012, 561.388 813.229, 562.594 811.896 C 564.144 810.184, 565.716 810.004, 578.123 810.127 C 589.853 810.242, 592.164 810.524, 593.501 812.001 C 594.829 813.469, 595.574 813.564, 598.287 812.611 C 604.679 810.368, 605.975 807.701, 601.500 806 C 598.900 805.012, 598.280 803.563, 600 802.500 C 600.550 802.160, 601.012 798.646, 601.028 794.691 L 601.055 787.500 607.084 781.020 C 611.630 776.134, 612.967 774.043, 612.518 772.520 C 608.435 758.656, 607.907 755.259, 608.538 746.915 C 609.086 739.662, 608.928 738.071, 607.522 736.665 C 606.606 735.749, 605.245 735, 604.496 735 C 603.747 735, 602.826 733.987, 602.449 732.750 C 600.896 727.653, 594.371 723.196, 591.059 724.969 C 590.001 725.535, 588.850 726.898, 588.500 727.999 C 588.151 729.100, 587.446 730, 586.933 730 C 585.189 730, 585.991 726.799, 588.474 723.849 C 589.834 722.232, 591.431 719.112, 592.023 716.915 C 592.614 714.719, 594.374 710.758, 595.933 708.113 C 597.493 705.468, 599.078 702.328, 599.457 701.135 C 600.089 699.143, 602.352 697.583, 611.631 692.742 C 615.275 690.841, 615.865 689.546, 613.500 688.638 C 612.579 688.285, 612 686.767, 612 684.706 C 612 682.382, 611.202 680.603, 609.405 678.924 C 603.425 673.337, 601.281 664.091, 603.488 653.406 C 605.542 643.462, 607.753 639, 610.626 639 C 611.867 639, 613.160 638.550, 613.500 638 C 614.460 636.447, 618.607 636.822, 620.079 638.595 C 621.184 639.926, 621.152 640.631, 619.887 642.845 C 618.716 644.895, 617.729 645.430, 615.559 645.192 L 612.749 644.885 614.659 648.156 C 616.639 651.546, 619.167 652.730, 624.790 652.900 C 628.634 653.017, 636 649.557, 636 647.635 C 636 645.115, 632.493 642.951, 629.408 643.568 C 625.401 644.370, 621.445 640.348, 622.420 636.464 C 622.924 634.456, 623.496 633.990, 624.792 634.532 C 625.731 634.925, 628.188 635.439, 630.250 635.673 C 633.154 636.004, 634 635.750, 634 634.550 C 634 633.341, 635.190 633, 639.412 633 C 644.726 633, 644.818 633.050, 644.509 635.750 C 644.322 637.387, 645.571 641.308, 647.597 645.441 C 650.168 650.684, 650.695 652.578, 649.750 653.186 C 648.949 653.702, 647.708 653.020, 646.294 651.285 C 643.964 648.425, 641.707 648.887, 643.788 651.798 C 644.457 652.734, 645.410 654.426, 645.904 655.557 C 646.399 656.689, 648.873 659.744, 651.402 662.346 C 653.931 664.948, 656 667.320, 656 667.618 C 656 667.915, 654.613 667.854, 652.918 667.482 C 650.109 666.865, 649.865 667.012, 650.168 669.132 C 650.648 672.495, 655.279 673.963, 657.907 671.584 C 660.491 669.245, 662.080 670.352, 661.353 673.986 C 660.756 676.971, 663.828 683.443, 666.221 684.240 C 666.851 684.450, 667.959 687.295, 668.683 690.561 C 670.387 698.247, 671.442 748.538, 670.139 759.967 C 669.187 768.316, 669.210 768.478, 671.837 771.608 C 673.302 773.354, 675.400 775.985, 676.500 777.456 C 677.600 778.927, 679.962 781.843, 681.750 783.936 C 685.332 788.131, 685.764 790.121, 683.500 792 C 682.654 792.702, 682 794.882, 682 797 C 682 799.065, 681.426 801.231, 680.725 801.813 C 678.835 803.382, 670.098 806.178, 669.070 805.543 C 667.799 804.758, 665.001 806.003, 664.994 807.357 C 664.990 807.986, 663.582 809.300, 661.864 810.278 C 658.811 812.016, 658.782 812.101, 660.565 814.072 C 663.051 816.819, 666.197 816.128, 667.977 812.442 C 669.315 809.671, 669.897 809.385, 674.186 809.385 C 677.044 809.385, 679.627 808.766, 680.709 807.823 C 683.265 805.594, 685.092 805.193, 688.410 806.130 C 690.010 806.582, 695.185 807.013, 699.910 807.088 C 709.733 807.243, 712 808.074, 712 811.516 C 712 814.574, 710.086 815.068, 699.681 814.694 C 695.381 814.539, 691.642 814.770, 691.372 815.206 C 691.103 815.643, 691.921 816.007, 693.191 816.015 C 696.177 816.035, 698.603 817.509, 697.139 818.414 C 695.528 819.410, 686 817.907, 686 816.657 C 686 816.060, 685.274 816.297, 684.387 817.184 C 683.042 818.530, 682.891 820.124, 683.481 826.788 L 684.189 834.779 690.844 835.227 C 694.505 835.473, 704.587 835.459, 713.250 835.195 L 729 834.716 729.193 797.108 C 729.299 776.424, 729.271 750.500, 729.132 739.500 C 728.992 728.500, 728.762 698.019, 728.620 671.765 C 728.479 645.511, 728.138 623.805, 727.862 623.529 C 727.587 623.254, 719.518 623.054, 709.931 623.086 C 693.081 623.142, 678.194 623.049, 644.500 622.677 C 635.700 622.580, 622.328 622.747, 614.785 623.048 M 569.220 626.180 C 567.460 627.940, 567.677 632, 569.531 632 C 571.535 632, 572.276 629.921, 571.256 627.164 C 570.614 625.429, 570.181 625.219, 569.220 626.180 M 692.353 628.522 C 691.884 629.746, 690.959 630.042, 688.895 629.629 C 687.320 629.314, 685.779 629.548, 685.401 630.160 C 684.953 630.886, 681.424 631.095, 674.920 630.782 L 665.114 630.310 663.913 633.211 C 662.976 635.472, 662.977 636.375, 663.918 637.306 C 664.855 638.233, 665.348 638.104, 666.124 636.729 C 667.379 634.504, 669.284 635.531, 668.497 638.009 C 668.065 639.371, 668.489 639.934, 670.128 640.175 C 673.085 640.609, 673.749 642.991, 671.105 643.683 C 669.947 643.986, 669 644.631, 669 645.117 C 669 646.363, 672.769 646.213, 676.643 644.812 C 679.473 643.789, 680.207 643.877, 681.945 645.450 C 683.485 646.844, 684.285 647.009, 685.324 646.146 C 686.570 645.112, 695.719 644.547, 705.392 644.906 C 710.566 645.098, 711.114 644.271, 707.498 641.731 C 702.383 638.137, 695.922 630.980, 696.218 629.235 C 696.595 627.014, 693.174 626.383, 692.353 628.522 M 707.334 628.429 C 707.636 629.215, 708.179 631.439, 708.542 633.372 C 709.091 636.296, 709.729 636.997, 712.351 637.550 C 714.083 637.916, 716.723 639.529, 718.218 641.134 C 723.015 646.287, 727.110 643.239, 726.964 634.625 C 726.929 632.527, 722.015 625.517, 722.005 627.550 C 722.002 628.128, 722.469 629.069, 723.042 629.642 C 723.766 630.366, 723.612 631.077, 722.542 631.965 C 720.655 633.531, 717.816 631.677, 718.237 629.153 C 718.382 628.284, 717.712 627.411, 716.750 627.213 C 715.452 626.946, 715 627.503, 715 629.368 C 715 630.751, 714.591 632.135, 714.090 632.444 C 712.348 633.521, 710 631.770, 710 629.393 C 710 627.862, 709.421 627, 708.393 627 C 707.411 627, 706.999 627.556, 707.334 628.429 M 733.500 628 C 733.160 628.550, 733.332 629, 733.882 629 C 734.432 629, 735.160 628.550, 735.500 628 C 735.840 627.450, 735.668 627, 735.118 627 C 734.568 627, 733.840 627.450, 733.500 628 M 632.531 629.293 C 632.103 630.279, 632.034 631.367, 632.376 631.710 C 633.392 632.725, 634.211 631.299, 633.743 629.328 C 633.329 627.581, 633.275 627.580, 632.531 629.293 M 659.384 630.442 C 658.644 632.371, 659.261 635.058, 660.500 635.303 C 661.050 635.411, 661.641 634.038, 661.813 632.250 C 662.130 628.964, 660.435 627.702, 659.384 630.442 M 902 629.868 C 902 630.426, 902.450 631.160, 903 631.500 C 903.550 631.840, 904 634.108, 904 636.540 C 904 638.973, 904.524 644.020, 905.165 647.756 C 906.342 654.621, 905.808 660, 903.950 660 C 903.393 660, 902.678 659.212, 902.362 658.250 C 900.437 652.399, 892.535 636.281, 890.581 634.219 C 889.599 633.184, 889.032 633.307, 887.626 634.861 C 885.867 636.805, 885.624 636.791, 878.500 634.355 C 877.950 634.167, 876.734 633.463, 875.798 632.792 C 873.510 631.150, 872.907 632.003, 873.849 635.550 C 874.445 637.794, 875.300 638.578, 877.422 638.827 C 879.891 639.116, 880.774 640.345, 885.106 649.529 C 887.798 655.236, 890 660.601, 890 661.452 C 890 664.688, 887.131 662.771, 882.963 656.750 C 880.584 653.313, 876.845 648.325, 874.655 645.666 C 871.372 641.680, 870.517 641.111, 869.783 642.423 C 869.127 643.595, 868.422 643.761, 867.100 643.053 C 865.891 642.406, 864.930 642.470, 864.153 643.247 C 862.423 644.977, 862.742 646.409, 865.418 648.923 C 868.158 651.497, 874.403 661.355, 875.444 664.750 C 876.620 668.580, 874.144 667.339, 868.487 661.261 C 865.549 658.104, 862.898 655.768, 862.596 656.070 C 862.294 656.372, 862.937 658.960, 864.024 661.820 C 866.544 668.454, 866.519 670, 863.893 670 C 862.273 670, 861.956 670.404, 862.522 671.750 C 863.951 675.151, 864.223 678.026, 863.233 679.256 C 861.784 681.054, 863.517 684.875, 866.223 685.846 C 868.526 686.673, 879.273 686.733, 881.957 685.934 C 882.992 685.626, 883.775 686.911, 884.658 690.367 C 885.343 693.044, 886.646 696.056, 887.554 697.060 C 889.103 698.771, 889.037 699.053, 886.511 701.580 L 883.817 704.274 886.537 710.675 C 888.033 714.196, 889.087 717.231, 888.879 717.421 C 887.875 718.337, 883.870 715.788, 883.090 713.736 C 882.009 710.893, 880.279 709.461, 876.979 708.676 C 874.094 707.990, 868 702.410, 868 700.454 C 868 698.554, 855.968 687, 853.989 687 C 853.067 687, 850.399 689.270, 848.060 692.044 C 845.388 695.213, 842.738 697.302, 840.933 697.663 C 837.748 698.300, 836.599 700.553, 837.541 704.307 C 837.907 705.767, 837.513 708.041, 836.581 709.843 C 835.697 711.553, 835 715.346, 835 718.450 C 835 723.333, 835.240 724, 837 724 C 838.100 724, 839.930 724.930, 841.067 726.067 C 842.674 727.674, 843.442 727.878, 844.520 726.984 C 845.574 726.109, 846.288 726.152, 847.501 727.167 C 851.113 730.186, 853.252 732.662, 854.702 735.500 L 856.234 738.500 852.632 735.068 C 848.875 731.489, 846.621 731.562, 848.887 735.191 C 849.608 736.345, 851.012 739.587, 852.007 742.395 C 855.970 753.585, 857.537 757, 858.707 757 C 861.027 757, 861.912 753.336, 861.314 746.205 L 860.719 739.109 863.610 738.400 C 868.590 737.180, 869.679 733.390, 865.250 732.695 C 863.737 732.457, 864.300 732.493, 866.500 732.774 C 868.700 733.055, 872.525 733.334, 875 733.394 C 877.918 733.464, 881.240 734.483, 884.448 736.291 C 894.833 742.146, 899.995 741.826, 904.100 735.075 C 906.358 731.363, 906.989 731.295, 909.944 734.441 C 911.946 736.572, 912.099 737.277, 911.151 739.998 C 910.120 742.954, 910.178 743.079, 912.282 742.423 C 913.502 742.042, 915.388 741.116, 916.473 740.365 C 917.557 739.614, 920.257 738.984, 922.473 738.965 C 924.688 738.945, 927.618 738.310, 928.984 737.554 C 930.759 736.571, 932.005 736.468, 933.356 737.190 C 934.394 737.746, 936.594 737.931, 938.244 737.601 C 940.828 737.084, 941.071 737.209, 940 738.500 C 939.055 739.639, 939.013 741.010, 939.827 744.217 C 941.021 748.920, 940.731 749.852, 938.621 748.100 C 934.415 744.610, 926 744.659, 926 748.174 C 926 753.652, 920.781 756.185, 919.023 751.561 C 917.939 748.708, 914.493 746.577, 912.729 747.667 C 912.053 748.085, 910.157 748.443, 908.514 748.464 C 906.196 748.492, 905.212 749.170, 904.113 751.500 C 903.335 753.150, 902.084 754.864, 901.334 755.308 C 900.583 755.753, 899.189 756.927, 898.235 757.917 C 896.117 760.116, 891.969 761.217, 890.117 760.072 C 888.167 758.867, 888.428 754.290, 890.583 751.908 C 892.072 750.263, 892.189 749.565, 891.206 748.191 C 890.540 747.261, 889.572 745.526, 889.055 744.336 C 888.538 743.145, 887.212 741.885, 886.108 741.534 C 885.005 741.184, 883.816 739.994, 883.465 738.891 C 882.482 735.792, 878.428 736.746, 878.737 740.003 C 878.954 742.284, 878.858 742.349, 877.627 740.750 C 876.886 739.788, 875.992 739, 875.640 739 C 874.592 739, 874.915 743.829, 876.007 744.504 C 877.580 745.477, 880.281 751.202, 880.650 754.346 C 880.833 755.911, 882.081 758.496, 883.423 760.090 C 884.764 761.685, 886.148 763.891, 886.498 764.992 C 886.849 766.099, 888.335 767.246, 889.817 767.554 C 891.292 767.861, 894.360 768.581, 896.634 769.154 C 899.567 769.893, 901.363 769.876, 902.818 769.097 C 903.946 768.494, 909.286 767.980, 914.684 767.956 C 920.604 767.930, 926.087 767.340, 928.500 766.471 C 930.700 765.679, 933.400 765.016, 934.500 764.999 C 935.600 764.981, 938.208 763.962, 940.295 762.734 L 944.091 760.500 944.598 734.533 C 944.921 717.995, 944.738 707.827, 944.094 706.533 C 943.538 705.415, 942.591 702.564, 941.989 700.197 C 941.387 697.831, 940.080 695.080, 939.085 694.085 C 938.090 693.090, 936.454 690.884, 935.449 689.183 C 934.444 687.482, 932.694 685.957, 931.561 685.795 C 929.945 685.564, 929.500 684.771, 929.500 682.121 C 929.500 677.913, 925.877 674.890, 919.852 674.070 C 917.548 673.756, 915.484 672.962, 915.266 672.304 C 914.820 670.960, 921.919 667.002, 926.489 666.047 C 929.040 665.514, 929.575 664.842, 930.134 661.461 C 930.923 656.691, 930.697 656.361, 927.604 657.771 C 924.425 659.219, 923.624 658.222, 925.575 655.245 C 927.025 653.032, 927.017 652.677, 925.483 650.982 C 924.563 649.965, 923.160 647.415, 922.366 645.316 L 920.922 641.500 921.342 646.279 C 921.691 650.267, 921.434 651.232, 919.786 652.114 C 918.511 652.797, 917.989 653.850, 918.312 655.086 C 918.587 656.139, 918.475 657, 918.061 657 C 916.507 657, 914.354 653.303, 912.531 647.500 C 911.495 644.200, 910.276 641.072, 909.823 640.550 C 909.370 640.028, 909 638.587, 909 637.350 C 909 636.112, 908.375 634.740, 907.611 634.300 C 906.848 633.860, 906.055 632.605, 905.850 631.511 C 905.471 629.491, 902 628.009, 902 629.868 M 535.015 632.250 C 535.046 634.785, 536.730 636.220, 538.875 635.540 C 541.519 634.700, 541.591 633.387, 539.066 632.035 C 536.479 630.651, 534.997 630.729, 535.015 632.250 M 755.500 634 C 755.840 634.550, 756.316 635, 756.559 635 C 756.802 635, 757 634.550, 757 634 C 757 633.450, 756.523 633, 755.941 633 C 755.359 633, 755.160 633.450, 755.500 634 M 546 638 C 546 639.100, 546.395 640, 546.878 640 C 548.189 640, 550.082 637.415, 549.325 636.658 C 547.956 635.289, 546 636.078, 546 638 M 390.287 639.009 C 389.961 640.256, 388.560 643.352, 387.173 645.889 C 385.320 649.278, 384.500 652.619, 384.076 658.496 C 383.509 666.366, 383.443 666.529, 379.845 668.852 L 376.191 671.212 377.704 674.856 C 378.537 676.860, 380.406 680.300, 381.859 682.500 C 383.312 684.700, 385.139 687.737, 385.919 689.250 C 387.456 692.229, 390.436 692.913, 391.362 690.500 C 391.678 689.675, 392.626 689, 393.469 689 C 394.311 689, 395 689.675, 395 690.500 C 395 691.325, 395.395 692, 395.878 692 C 397.782 692, 399.290 688.726, 399.542 684.041 C 399.863 678.081, 400.451 677, 403.368 677 C 406.748 677, 409.814 674.453, 408.292 672.910 C 407.339 671.943, 406.772 671.944, 405.603 672.915 C 403.411 674.733, 398.430 673.921, 398.782 671.802 C 398.937 670.868, 398.149 669.615, 397.032 669.017 C 395.914 668.419, 395 666.983, 395 665.826 C 395 663.889, 395.397 663.768, 399.993 664.313 C 406.198 665.048, 411.671 662.995, 413.029 659.424 C 414.242 656.233, 412.651 648.724, 409.963 644.947 C 408.883 643.432, 408 641.510, 408 640.678 C 408 639.514, 406.442 639.076, 401.250 638.782 C 397.538 638.571, 393.686 638.026, 392.690 637.570 C 391.286 636.926, 390.748 637.248, 390.287 639.009 M 771.200 642.200 C 769.548 643.852, 769.692 648.499, 771.441 649.951 C 772.233 650.608, 772.635 651.788, 772.334 652.573 C 771.972 653.516, 772.465 654, 773.786 654 C 774.886 654, 776.045 653.325, 776.362 652.500 C 776.678 651.675, 777.664 651, 778.552 651 C 779.440 651, 779.975 650.438, 779.740 649.750 C 779.506 649.063, 777.820 648.500, 775.993 648.500 C 771.840 648.500, 770.943 646.352, 774.527 644.990 C 776.760 644.141, 777.008 643.714, 775.986 642.483 C 774.496 640.688, 772.812 640.588, 771.200 642.200 M 537 643.559 C 537 644.416, 537.450 644.840, 538 644.500 C 538.550 644.160, 539 643.459, 539 642.941 C 539 642.423, 538.550 642, 538 642 C 537.450 642, 537 642.702, 537 643.559 M 551.500 643 C 551.840 643.550, 552.316 644, 552.559 644 C 552.802 644, 553 643.550, 553 643 C 553 642.450, 552.523 642, 551.941 642 C 551.359 642, 551.160 642.450, 551.500 643 M 733 647.167 C 733 648.478, 733.563 649.037, 734.667 648.823 C 737.142 648.343, 737.384 646.334, 735.041 645.721 C 733.494 645.316, 733 645.666, 733 647.167 M 558 648.500 C 558 649.325, 558.450 650, 559 650 C 559.550 650, 560 649.325, 560 648.500 C 560 647.675, 559.550 647, 559 647 C 558.450 647, 558 647.675, 558 648.500 M 753.459 651.067 C 752.539 652.556, 753.606 653.365, 755.520 652.631 C 756.404 652.292, 756.847 651.561, 756.504 651.007 C 755.694 649.696, 754.289 649.723, 753.459 651.067 M 779.220 654.180 C 778.314 655.086, 778.819 656.071, 781.401 658.430 C 785.897 662.538, 793 673.219, 793 675.871 C 793 679.565, 790.733 678.255, 782.424 669.758 C 769.231 656.268, 765.915 653.557, 764.086 654.766 C 763.214 655.342, 762.631 656.361, 762.791 657.030 C 762.958 657.728, 762.467 658.010, 761.638 657.691 C 759.577 656.901, 756.553 659.392, 757.278 661.282 C 757.610 662.147, 759.820 663.721, 762.191 664.780 C 767.699 667.243, 777.735 677.665, 776.136 679.264 C 774.633 680.767, 770.403 678.497, 761.645 671.487 C 752.308 664.012, 747.662 663.972, 746.817 671.359 C 746.434 674.715, 746.756 675.498, 749.286 677.359 C 750.886 678.537, 752.850 680.761, 753.651 682.303 C 754.451 683.845, 755.982 685.982, 757.053 687.053 C 758.124 688.124, 759 689.603, 759 690.339 C 759 692.140, 754.686 694, 750.512 694 C 746.537 694, 746.006 694.582, 746.695 698.185 C 747.376 701.749, 752.267 702.587, 761 700.639 C 764.575 699.841, 769.540 698.908, 772.033 698.566 C 774.525 698.223, 778.125 696.959, 780.033 695.757 C 783.765 693.405, 802.576 685.406, 807.500 684.077 C 814.516 682.184, 824.611 678.875, 825.987 678.017 C 827.245 677.232, 827.121 676.761, 825.175 674.949 C 823.912 673.771, 822.466 671.726, 821.963 670.404 C 820.867 667.521, 818.584 667.113, 819.488 669.962 C 820.140 672.017, 818.547 676, 817.073 676 C 816.602 676, 815.942 674.906, 815.607 673.569 C 815.271 672.231, 813.310 668.300, 811.248 664.832 C 808.262 659.809, 807.436 658.971, 807.187 660.712 C 807.015 661.914, 807.353 663.790, 807.937 664.883 C 809.925 668.597, 808.980 675, 806.444 675 C 804.874 675, 801.086 670.182, 798.189 664.500 C 797.068 662.300, 794.793 658.925, 793.135 657 C 790.656 654.123, 790.218 653.900, 790.676 655.750 C 791.450 658.877, 788.623 658.731, 785.813 655.500 C 783.458 652.791, 781.084 652.316, 779.220 654.180 M 625.500 657.328 C 619.131 659.826, 616 662.059, 616 664.105 C 616 665.820, 616.454 666.063, 618.750 665.577 C 620.263 665.257, 622.850 665.376, 624.500 665.841 C 626.450 666.392, 628.784 666.243, 631.170 665.417 C 633.188 664.717, 635.695 664.369, 636.740 664.642 C 637.785 664.915, 639.210 664.452, 639.907 663.612 C 640.962 662.341, 640.748 661.657, 638.633 659.542 C 637.235 658.144, 634.982 657, 633.627 657 C 632.272 657, 630.564 656.809, 629.832 656.576 C 629.099 656.343, 627.150 656.682, 625.500 657.328 M 742.599 660.187 C 737.232 665.513, 730.700 679.984, 735.436 676.053 C 736.531 675.145, 737.387 675.137, 739.036 676.019 C 741.208 677.181, 741.252 677.982, 739.464 683.750 C 738.894 685.589, 739.149 686, 740.860 686 C 742.012 686, 743.691 684.875, 744.592 683.500 C 746.124 681.162, 746.109 680.829, 744.365 678.368 C 741.067 673.713, 740.030 671.549, 740.015 669.289 C 740 667.040, 740.400 666.553, 745.250 662.917 C 747.834 660.979, 748.921 657.611, 747.250 656.716 C 746.837 656.495, 744.744 658.057, 742.599 660.187 M 462 660 C 462 660.550, 462.702 661, 463.559 661 C 464.416 661, 464.840 660.550, 464.500 660 C 464.160 659.450, 463.459 659, 462.941 659 C 462.423 659, 462 659.450, 462 660 M 662.001 662.498 C 661.265 663.873, 661.001 665.334, 661.414 665.747 C 662.281 666.614, 665 663.249, 665 661.309 C 665 659.188, 663.441 659.807, 662.001 662.498 M 477 662 C 477 662.550, 477.423 663, 477.941 663 C 478.459 663, 479.160 662.550, 479.500 662 C 479.840 661.450, 479.416 661, 478.559 661 C 477.702 661, 477 661.450, 477 662 M 132.667 669.667 C 132.300 670.033, 132 670.798, 132 671.367 C 132 671.993, 132.466 671.934, 133.183 671.217 C 133.834 670.566, 134.134 669.801, 133.850 669.517 C 133.566 669.232, 133.033 669.300, 132.667 669.667 M 483 670.417 C 483 671.288, 483.712 672, 484.583 672 C 485.454 672, 485.989 671.466, 485.771 670.813 C 485.153 668.958, 483 668.651, 483 670.417 M 138 671.559 C 138 672.416, 138.457 672.835, 139.016 672.490 C 139.575 672.144, 139.774 671.443, 139.457 670.931 C 138.600 669.544, 138 669.802, 138 671.559 M 625.561 672.881 C 624.185 675.542, 623.733 675.724, 619.641 675.263 C 615.685 674.817, 615.132 675.009, 614.482 677.056 C 613.975 678.653, 614.247 679.707, 615.377 680.534 C 616.270 681.187, 617 682.142, 617 682.657 C 617 685.807, 624.727 693, 628.111 693 C 631.896 693, 638 687.630, 638 684.301 C 638 682.930, 638.908 680.533, 640.018 678.975 C 642.425 675.595, 641.367 674.521, 636.524 675.430 C 633.596 675.979, 632.907 675.678, 631.020 673.029 C 628.340 669.264, 627.444 669.240, 625.561 672.881 M 752.347 672.537 C 751.626 674.418, 754.076 677.235, 759.784 681.087 C 764.768 684.451, 766.013 684.685, 765.967 682.250 C 765.928 680.217, 763.848 677.614, 759.173 673.750 C 755.433 670.658, 753.219 670.265, 752.347 672.537 M 853 671.918 C 853 674.197, 854.372 676, 856.107 676 C 858.497 676, 858.520 674.781, 856.171 672.655 C 854.127 670.805, 853 670.543, 853 671.918 M 632 683 C 632 683.550, 632.450 684, 633 684 C 633.550 684, 634 683.550, 634 683 C 634 682.450, 633.550 682, 633 682 C 632.450 682, 632 682.450, 632 683 M 724 687 C 724 687.550, 724.450 688, 725 688 C 725.550 688, 726 687.550, 726 687 C 726 686.450, 725.550 686, 725 686 C 724.450 686, 724 686.450, 724 687 M 731.546 689.250 C 731.246 691.038, 731.167 695.425, 731.369 699 C 731.572 702.575, 731.797 706.524, 731.869 707.775 C 731.953 709.226, 732.926 710.402, 734.560 711.023 C 735.985 711.565, 736.827 712.471, 736.459 713.066 C 736.095 713.655, 735.183 713.900, 734.431 713.612 C 732.106 712.720, 731.747 714.765, 731.759 728.859 L 731.770 742.500 734.135 742.224 C 735.436 742.072, 738.491 739.963, 740.924 737.537 C 744.682 733.790, 745.155 732.891, 744.062 731.575 C 743.355 730.723, 743.044 729.327, 743.372 728.473 C 743.887 727.130, 744.491 727.223, 747.861 729.162 C 750.003 730.395, 752.597 732.661, 753.627 734.199 C 756.817 738.961, 758.292 737.853, 757.553 731.250 C 757.198 728.087, 757.380 723.072, 757.956 720.105 C 758.613 716.719, 758.653 714.286, 758.062 713.575 C 757.109 712.426, 747.832 712.341, 744.962 713.455 C 743.839 713.890, 742.495 712.313, 739.981 707.609 C 736.695 701.458, 736.618 701.080, 738.270 699.255 C 740.398 696.902, 740.501 694.406, 738.500 693.638 C 737.640 693.308, 737 691.815, 737 690.138 C 737 687.474, 735.562 686, 732.964 686 C 732.483 686, 731.845 687.462, 731.546 689.250 M 353.607 690.582 C 352.800 692.684, 352.826 701, 353.640 701 C 353.992 701, 354.812 700.272, 355.463 699.381 C 356.488 697.980, 356.943 697.946, 358.854 699.131 C 360.747 700.305, 361.197 700.287, 362.015 699 C 363.474 696.707, 363.217 696.033, 360.488 694.995 C 359.106 694.470, 357.459 692.906, 356.827 691.520 C 355.507 688.623, 354.474 688.322, 353.607 690.582 M 809 690.719 C 801.679 691.659, 789.929 695.729, 784.785 699.107 C 781.642 701.171, 776.692 704.081, 773.785 705.573 C 770.878 707.065, 767.286 708.918, 765.802 709.690 C 764.319 710.462, 762.782 712.085, 762.387 713.297 C 761.335 716.523, 761.771 731.453, 763.146 739.298 C 764.246 745.573, 764.690 746.389, 768.919 749.902 C 771.438 751.995, 774.400 754.182, 775.500 754.762 C 776.600 755.342, 780.599 758.108, 784.387 760.908 C 791.566 766.217, 794.185 766.931, 797.441 764.468 C 798.509 763.661, 800.991 763, 802.957 763 C 808.164 763, 813.147 759.971, 814.614 755.914 C 816.878 749.650, 816.446 748.336, 811.500 746.447 C 809.025 745.502, 807 744.504, 807 744.229 C 807 743.954, 808.115 742.696, 809.477 741.434 C 810.933 740.084, 812.217 737.498, 812.590 735.160 C 813.207 731.306, 813.314 731.213, 816.033 732.161 C 817.577 732.699, 819.087 733.783, 819.388 734.570 C 820.946 738.630, 823.764 733.571, 824.638 725.145 C 825.161 720.102, 824.922 719.041, 822.396 715.192 C 819.841 711.298, 819.229 710.913, 816.034 711.188 C 810.928 711.628, 811.432 709.023, 816.800 707.233 C 822.376 705.375, 821.729 703.425, 815.642 703.742 C 811.882 703.939, 811 703.669, 811 702.321 C 811 701.406, 811.737 699.843, 812.638 698.847 C 813.901 697.451, 814.012 696.719, 813.121 695.646 C 812.485 694.880, 812.229 693.567, 812.551 692.728 C 813.268 690.859, 812.276 690.298, 809 690.719 M 923 694 C 923 694.550, 923.900 695, 925 695 C 926.100 695, 927 694.550, 927 694 C 927 693.450, 926.100 693, 925 693 C 923.900 693, 923 693.450, 923 694 M 368 697.500 C 368 698.333, 368.889 699, 370 699 C 371.111 699, 372 698.333, 372 697.500 C 372 696.667, 371.111 696, 370 696 C 368.889 696, 368 696.667, 368 697.500 M 407.079 700.583 C 407.127 701.748, 407.364 701.985, 407.683 701.188 C 407.972 700.466, 407.936 699.603, 407.604 699.271 C 407.272 698.939, 407.036 699.529, 407.079 700.583 M 897.250 702.718 C 895.532 703.334, 895.672 705, 897.441 705 C 899.097 705, 900.408 703.351, 899.266 702.704 C 898.845 702.465, 897.938 702.472, 897.250 702.718 M 780.305 704.317 C 780.027 704.766, 779.996 705.329, 780.235 705.568 C 781.018 706.351, 793 704.738, 793 703.850 C 793 702.764, 780.993 703.205, 780.305 704.317 M 353.520 710.750 C 353.168 714.462, 352.120 719.290, 351.190 721.477 C 349.406 725.675, 349.218 736.780, 350.880 739.750 C 351.629 741.088, 351.944 740.973, 353.013 738.976 C 353.899 737.321, 354.076 734.152, 353.617 728.182 C 353.003 720.192, 353.105 719.551, 355.484 716.432 C 358.838 712.035, 358.831 704, 355.473 704 C 354.581 704, 353.954 706.167, 353.520 710.750 M 408.079 708.691 C 408.036 710.996, 408.480 713.179, 409.067 713.541 C 411.019 714.748, 411.224 713.170, 409.683 708.813 L 408.158 704.500 408.079 708.691 M 807.477 712.037 C 806.213 714.082, 808.185 720.795, 811.025 724.116 C 814.367 728.024, 815.016 726.366, 812.500 720.346 C 811.675 718.371, 811 715.461, 811 713.878 C 811 710.999, 808.822 709.861, 807.477 712.037 M 919 711.809 C 919 712.254, 919.645 713.491, 920.433 714.559 C 921.538 716.057, 922.140 716.230, 923.065 715.317 C 924.736 713.671, 923.478 711, 921.031 711 C 919.914 711, 919 711.364, 919 711.809 M 297.676 714.402 C 296.965 716.254, 297.825 717, 300.667 717 C 302.333 717, 303 716.429, 303 715 C 303 713.557, 302.333 713, 300.607 713 C 299.291 713, 297.972 713.631, 297.676 714.402 M 785.500 714 C 785.132 714.595, 786.323 715, 788.441 715 C 790.398 715, 792.326 715.034, 792.725 715.075 C 793.124 715.116, 793.611 714.666, 793.808 714.075 C 794.267 712.698, 786.349 712.627, 785.500 714 M 359.750 715.584 C 359.429 715.905, 360.094 717.740, 361.228 719.661 L 363.289 723.155 365.332 721.113 C 367.319 719.125, 367.324 719.016, 365.532 717.035 C 363.757 715.074, 360.961 714.372, 359.750 715.584 M 258.607 718.582 C 257.305 721.976, 257.879 723.084, 260 721.268 C 261.100 720.326, 262 718.981, 262 718.278 C 262 716.455, 259.331 716.694, 258.607 718.582 M 742.154 723.552 C 742.345 724.532, 743.105 725.536, 743.846 725.782 C 744.706 726.069, 745.066 725.588, 744.846 724.448 C 744.655 723.468, 743.895 722.464, 743.154 722.218 C 742.294 721.931, 741.934 722.412, 742.154 723.552 M 926.900 724.100 C 925.456 725.544, 925.122 726.522, 925.833 727.233 C 927.498 728.898, 930 727.276, 930 724.531 C 930 721.456, 929.600 721.400, 926.900 724.100 M 416.466 726.036 C 413.577 729.051, 413.573 729.075, 415.779 729.652 C 417.631 730.137, 418 730.934, 418 734.450 C 418 739.454, 418.602 740.283, 421.217 738.884 C 423.662 737.575, 424.872 738.591, 422.857 740.260 C 422.034 740.942, 420.621 742.696, 419.718 744.157 C 418.337 746.391, 418.300 746.901, 419.486 747.356 C 420.320 747.676, 421.151 747.100, 421.516 745.949 C 422.151 743.948, 424 743.226, 424 744.980 C 424 745.518, 425.800 746.878, 428 748 C 432.706 750.401, 433.011 752.079, 429.250 754.885 L 426.500 756.937 430 756.990 C 436.991 757.097, 446.988 764.055, 447.007 768.827 C 447.010 769.747, 447.907 771.850, 449 773.500 C 450.884 776.345, 451.654 781.012, 450.440 782.227 C 450.132 782.535, 448.669 782.195, 447.190 781.472 C 443.112 779.479, 439 779.208, 439 780.934 C 439 781.447, 440.238 782.010, 441.750 782.184 C 445.723 782.641, 445.340 785.419, 441.250 785.813 C 439.424 785.989, 438 785.661, 438 785.063 C 438 784.479, 437.325 784, 436.500 784 C 435.549 784, 435 784.957, 435 786.617 C 435 788.690, 434.608 789.131, 433.111 788.739 C 430.517 788.061, 428.801 789.318, 429.573 791.330 C 429.986 792.405, 431.334 792.995, 433.357 792.985 C 437.300 792.967, 447.930 790.508, 454.500 788.094 C 458.118 786.765, 461.158 786.394, 465.500 786.752 L 471.500 787.247 465.250 781.351 C 461.813 778.109, 459 774.705, 459 773.787 C 459 772.869, 458.490 771.803, 457.867 771.418 C 457.044 770.909, 456.927 772.261, 457.439 776.359 C 457.827 779.461, 457.752 782, 457.272 782 C 455.626 782, 454 779.598, 454 777.168 C 454 775.830, 453.155 773.333, 452.122 771.618 C 449.967 768.042, 448.450 761, 449.833 761 C 450.342 761, 451.303 762.317, 451.970 763.928 C 452.637 765.538, 454.042 767.633, 455.091 768.583 C 458.298 771.485, 457.376 768.192, 453.341 762.333 C 450.635 758.404, 449.360 757.287, 448.447 758.044 C 447.306 758.991, 444.344 758.134, 438 755.021 C 435.131 753.614, 435.646 751.021, 438.925 750.365 C 442.278 749.694, 443.067 747.130, 440.559 745.049 C 439.767 744.392, 438.980 742.650, 438.809 741.179 C 438.582 739.209, 437.512 738.040, 434.750 736.744 C 430.969 734.970, 430.679 734.363, 430.563 728 C 430.512 725.188, 430.107 724.500, 428.500 724.500 C 426.999 724.500, 426.346 725.373, 425.882 728 L 425.263 731.500 425.132 728.285 C 425.047 726.224, 424.306 724.699, 423.066 724.035 C 420.236 722.521, 419.669 722.692, 416.466 726.036 M 893 724.953 C 893 729.284, 898.195 733.590, 901.314 731.844 C 903.898 730.398, 903.384 729.415, 898.572 726.595 C 893.711 723.746, 893 723.537, 893 724.953 M 437.667 725.667 C 436.418 726.915, 436.995 732.751, 438.490 733.992 C 439.720 735.012, 440.123 734.840, 440.801 733.008 C 442.491 728.441, 440.217 723.116, 437.667 725.667 M 735.800 727.200 C 736.733 728.133, 737.267 728.133, 738.200 727.200 C 739.133 726.267, 738.867 726, 737 726 C 735.133 726, 734.867 726.267, 735.800 727.200 M 132.518 733.129 C 132.972 735.630, 132.665 737.747, 131.528 739.946 C 130.621 741.700, 130.032 743.597, 130.220 744.161 C 130.408 744.725, 131.163 743.907, 131.897 742.343 C 132.631 740.779, 133.632 738.825, 134.122 738 C 136.178 734.537, 136.171 733.729, 134.069 731.667 L 131.860 729.500 132.518 733.129 M 385.733 736.728 C 382.489 738.470, 380.762 740.120, 380.329 741.894 C 379.479 745.370, 377.914 746.232, 375.847 744.362 C 373.550 742.282, 370.572 743.017, 370.180 745.760 C 369.818 748.298, 366 748.974, 366 746.500 C 366 745.675, 365.155 745, 364.122 745 C 363.090 745, 361.714 744.361, 361.066 743.579 C 359.231 741.369, 350.003 748.511, 350.001 752.143 C 350 754.694, 351.551 756, 354.582 756 C 355.362 756, 356 755.346, 356 754.547 C 356 751.295, 358.345 748, 360.661 748 C 361.947 748, 363.006 748.337, 363.014 748.750 C 363.021 749.163, 363.290 750.478, 363.610 751.674 C 364.070 753.387, 363.530 754.192, 361.064 755.467 C 359.343 756.357, 358.168 757.463, 358.453 757.925 C 358.739 758.386, 362.466 760.174, 366.736 761.898 C 372.701 764.306, 374.913 765.755, 376.282 768.152 C 377.822 770.849, 377.873 771.491, 376.657 772.886 C 375.721 773.960, 375.262 776.893, 375.286 781.650 L 375.322 788.800 380.276 790.400 C 383 791.280, 386.190 792.014, 387.365 792.030 C 391.212 792.085, 407.126 796.804, 408.912 798.420 C 409.872 799.289, 411.152 800, 411.756 800 C 412.360 800, 414.125 801.539, 415.677 803.420 C 417.230 805.301, 419.689 807.138, 421.143 807.502 L 423.785 808.163 421.897 802.439 C 419.465 795.067, 418.390 793.739, 416.044 795.205 C 414.030 796.462, 407.802 794.419, 402.808 790.863 C 400.487 789.211, 400 788.129, 400 784.628 C 400 781.100, 400.585 779.826, 403.502 776.998 C 406.223 774.361, 407.271 773.871, 408.202 774.802 C 410.853 777.453, 410.885 775.717, 408.276 770.750 C 406.759 767.862, 405.221 764.600, 404.859 763.500 C 404.323 761.874, 404.181 761.822, 404.100 763.219 C 403.945 765.882, 401.289 764.269, 400.070 760.771 C 399.481 759.083, 398.948 755.406, 398.884 752.601 C 398.820 749.795, 398.562 748.288, 398.311 749.250 C 397.763 751.347, 396.648 751.486, 395.122 749.646 C 394.427 748.810, 394.238 746.545, 394.625 743.717 C 395.434 737.819, 394.478 733.975, 392.231 734.084 C 391.279 734.130, 388.355 735.320, 385.733 736.728 M 409 738.529 C 409 739.896, 413.185 745.004, 413.928 744.545 C 414.354 744.281, 414.657 742.813, 414.601 741.283 C 414.519 739.021, 413.985 738.441, 411.750 738.184 C 410.238 738.010, 409 738.165, 409 738.529 M 158 743.393 C 158 744.159, 158.712 745.059, 159.582 745.393 C 162.650 746.570, 163.353 745.977, 161.230 744 C 158.695 741.638, 158 741.507, 158 743.393 M 751 743.849 C 751 744.969, 750.134 746.140, 749.051 746.484 C 747.979 746.824, 745.729 748.385, 744.051 749.952 C 741.733 752.118, 741 753.675, 741 756.434 C 741 764.863, 750.187 775.939, 762.126 781.905 C 768.071 784.876, 769.033 784.974, 776.789 783.405 C 780.821 782.590, 784.476 777.959, 784.719 773.358 C 784.917 769.618, 784.650 769.098, 781.958 767.982 C 780.205 767.257, 777.359 767.007, 775.049 767.376 C 770.594 768.089, 768.635 766.471, 771.455 764.409 C 773.092 763.212, 772.980 762.835, 769.858 759.027 C 768.011 756.775, 765.375 754.688, 764 754.389 C 760.281 753.581, 758.224 751.739, 755.691 746.947 C 753.163 742.168, 751 740.739, 751 743.849 M 817.079 743.583 C 817.127 744.748, 817.364 744.985, 817.683 744.188 C 817.972 743.466, 817.936 742.603, 817.604 742.271 C 817.272 741.939, 817.036 742.529, 817.079 743.583 M 166 744 C 166 744.550, 166.450 745, 167 745 C 167.550 745, 168 744.550, 168 744 C 168 743.450, 167.550 743, 167 743 C 166.450 743, 166 743.450, 166 744 M 422 749 C 422 749.550, 422.477 750, 423.059 750 C 423.641 750, 423.840 749.550, 423.500 749 C 423.160 748.450, 422.684 748, 422.441 748 C 422.198 748, 422 748.450, 422 749 M 579.079 754.583 C 579.127 755.748, 579.364 755.985, 579.683 755.188 C 579.972 754.466, 579.936 753.603, 579.604 753.271 C 579.272 752.939, 579.036 753.529, 579.079 754.583 M 416 756 C 416 757.273, 416.667 758, 417.833 758 C 420.578 758, 421.186 756.863, 419.234 755.381 C 416.803 753.535, 416 753.688, 416 756 M 916.510 755.016 C 916.856 755.575, 917.557 755.774, 918.069 755.457 C 919.456 754.600, 919.198 754, 917.441 754 C 916.584 754, 916.165 754.457, 916.510 755.016 M 268.158 763 C 268.158 764.375, 268.385 764.938, 268.662 764.250 C 268.940 763.563, 268.940 762.438, 268.662 761.750 C 268.385 761.063, 268.158 761.625, 268.158 763 M 301 767.441 C 301 768.298, 301.450 769, 302 769 C 302.550 769, 303 768.577, 303 768.059 C 303 767.541, 302.550 766.840, 302 766.500 C 301.450 766.160, 301 766.584, 301 767.441 M 380.667 767.667 C 380.300 768.033, 380 768.933, 380 769.667 C 380 771.280, 384.596 771.463, 385.569 769.888 C 386.706 768.049, 382.287 766.046, 380.667 767.667 M 328.014 777.250 C 328.035 790.218, 329.526 793.160, 332.701 786.500 C 333.619 784.575, 334.737 783, 335.185 783 C 336.626 783, 336.053 779.957, 334.500 779.362 C 333.675 779.045, 332.997 778.272, 332.994 777.643 C 332.979 774.459, 330.742 769, 329.453 769 C 328.299 769, 328.003 770.696, 328.014 777.250 M 384.570 775.887 C 383.885 776.995, 385.797 778.539, 388.750 779.262 C 390.613 779.718, 391 779.398, 391 777.406 C 391 775.410, 390.499 775, 388.059 775 C 386.441 775, 384.871 775.399, 384.570 775.887 M 870.667 777.667 C 870.300 778.033, 870.016 779.721, 870.035 781.417 L 870.071 784.500 871.500 782 C 873.646 778.246, 873.072 775.261, 870.667 777.667 M 412 779.806 C 412 780.864, 412.931 782.914, 414.069 784.360 C 415.390 786.040, 415.908 787.715, 415.501 788.995 C 415.136 790.147, 415.319 791, 415.933 791 C 417.526 791, 417.221 786.269, 415.378 782.385 C 413.426 778.270, 412 777.182, 412 779.806 M 296 782.441 C 296 783.234, 296.450 784.160, 297 784.500 C 297.550 784.840, 298 784.191, 298 783.059 C 298 781.927, 297.550 781, 297 781 C 296.450 781, 296 781.648, 296 782.441 M 342.598 786.736 C 341.394 787.939, 342.051 789, 344 789 C 345.100 789, 346 788.598, 346 788.107 C 346 786.983, 343.399 785.934, 342.598 786.736 M 936.755 792.114 C 934.695 793.158, 932.450 794.909, 931.764 796.005 C 931.079 797.102, 929.727 798, 928.759 798 C 927.792 798, 927 798.450, 927 799 C 927 799.550, 927.873 800, 928.941 800 C 930.009 800, 931.160 800.450, 931.500 801 C 931.840 801.550, 934.566 802, 937.559 802 C 942.914 802, 943 801.953, 943 799.059 C 943 797.441, 943.450 795.840, 944 795.500 C 944.550 795.160, 945 793.784, 945 792.441 C 945 789.429, 942.271 789.321, 936.755 792.114 M 334.200 792.200 C 332.338 794.062, 332.778 795.171, 335.240 794.820 C 336.472 794.644, 337.630 793.712, 337.813 792.750 C 338.195 790.744, 335.991 790.409, 334.200 792.200 M 879 794 C 879 794.550, 879.450 795, 880 795 C 880.550 795, 881 794.550, 881 794 C 881 793.450, 880.550 793, 880 793 C 879.450 793, 879 793.450, 879 794 M 874.495 798.007 C 873.615 799.431, 874.833 801, 876.818 801 C 877.754 801, 879.081 801.900, 879.768 803 C 881.366 805.559, 883 805.570, 883 803.020 C 883 800.745, 875.526 796.340, 874.495 798.007 M 644.095 805.385 C 643.415 806.205, 639.794 807.064, 635.223 807.489 C 625.409 808.403, 624 809.155, 624 813.476 C 624 817.739, 625.049 818.383, 632.431 818.655 C 641.896 819.004, 642.493 819.317, 642.549 823.958 C 642.604 828.525, 643.882 830.366, 646.341 829.422 C 648.854 828.458, 649.577 824.070, 647.747 820.883 C 646.047 817.920, 646.366 817, 649.094 817 C 651.215 817, 655 812.452, 655 809.904 C 655 805.472, 646.832 802.087, 644.095 805.385 M 303 807.893 C 303 808.384, 303.675 809.045, 304.500 809.362 C 305.414 809.712, 306 809.363, 306 808.469 C 306 807.661, 305.325 807, 304.500 807 C 303.675 807, 303 807.402, 303 807.893 M 607.584 812.315 C 605.539 813.810, 606.440 817, 608.907 817 C 610.653 817, 613 815.185, 613 813.835 C 613 812.119, 609.280 811.075, 607.584 812.315 M 885 814.050 C 885 815.825, 887.683 820.403, 889.898 822.407 C 893.101 825.306, 892.480 826.328, 887.891 825.712 L 883.782 825.161 884.391 828.206 C 884.726 829.880, 885 831.644, 885 832.125 C 885 832.606, 886.098 833, 887.441 833 C 888.784 833, 890.160 833.450, 890.500 834 C 891.285 835.270, 893.527 835.259, 898.192 833.963 C 903.227 832.565, 904.202 829.431, 900.572 826.309 C 899.096 825.039, 897.068 824, 896.065 824 C 894.227 824, 887 816.092, 887 814.082 C 887 813.487, 886.550 813, 886 813 C 885.450 813, 885 813.472, 885 814.050 M 570 816.441 C 570 817.234, 570.399 818.129, 570.887 818.430 C 571.988 819.111, 574.229 816.562, 573.325 815.658 C 572.135 814.468, 570 814.971, 570 816.441 M 906.875 828.500 C 906.525 829.902, 906.260 830.652, 905.540 832.293 C 904.645 834.332, 905.597 835.844, 906.888 834.433 C 908.282 832.909, 909.146 828, 908.019 828 C 907.459 828, 906.944 828.225, 906.875 828.500 M 636.750 833.080 C 634.427 834.433, 634.538 835.719, 637.048 836.515 C 639.811 837.392, 642.442 835.237, 640.890 833.367 C 639.554 831.757, 639.078 831.724, 636.750 833.080" stroke="none" fill="black" fill-rule="evenodd"/>
</svg>